<mxfile host="app.diagrams.net" agent="Mozilla/5.0 (Windows NT 10.0; Win64; x64) AppleWebKit/537.36 (KHTML, like Gecko) Chrome/132.0.0.0 Safari/537.36 Edg/132.0.0.0" version="26.0.11">
  <diagram name="Page-1" id="90a13364-a465-7bf4-72fc-28e22215d7a0">
    <mxGraphModel dx="925" dy="535" grid="1" gridSize="10" guides="1" tooltips="1" connect="1" arrows="1" fold="1" page="1" pageScale="1.5" pageWidth="1169" pageHeight="826" background="none" math="0" shadow="0">
      <root>
        <mxCell id="0" style=";html=1;" />
        <mxCell id="1" style=";html=1;" parent="0" />
        <mxCell id="3a17f1ce550125da-1" value="Block Diagram" style="whiteSpace=wrap;html=1;shadow=1;fontSize=20;fillColor=#f5f5f5;strokeColor=#666666;strokeWidth=2;dashed=1;" parent="1" vertex="1">
          <mxGeometry x="865" y="430" width="150" height="60" as="geometry" />
        </mxCell>
        <mxCell id="3a17f1ce550125da-14" value="&lt;font style=&quot;font-size: 14px;&quot;&gt;QspNow&lt;/font&gt;" style="edgeStyle=elbowEdgeStyle;rounded=0;html=1;startArrow=none;startFill=0;jettySize=auto;orthogonalLoop=1;fontSize=18;elbow=vertical;strokeColor=#000000;labelBackgroundColor=light-dark(#FFFFFF,#1A1A1A);fontColor=#1A1A1A;" parent="1" edge="1">
          <mxGeometry relative="1" as="geometry">
            <mxPoint x="1090" y="547" as="sourcePoint" />
            <mxPoint x="1190" y="547" as="targetPoint" />
            <Array as="points">
              <mxPoint x="1150" y="547" />
            </Array>
            <mxPoint as="offset" />
          </mxGeometry>
        </mxCell>
        <mxCell id="3a17f1ce550125da-15" value="&lt;font style=&quot;font-size: 14px;&quot;&gt;QspNow&lt;/font&gt;" style="edgeStyle=elbowEdgeStyle;rounded=0;html=1;startArrow=none;startFill=0;jettySize=auto;orthogonalLoop=1;fontSize=18;elbow=vertical;entryX=0;entryY=0.5;entryDx=0;entryDy=0;" parent="1" source="3a17f1ce550125da-2" target="rVol46p53n9q2bvDGO4r-7" edge="1">
          <mxGeometry relative="1" as="geometry">
            <mxPoint x="1190" y="630" as="targetPoint" />
            <Array as="points">
              <mxPoint x="1100" y="660" />
            </Array>
            <mxPoint as="offset" />
          </mxGeometry>
        </mxCell>
        <mxCell id="3a17f1ce550125da-2" value="Micro-Controller&lt;div&gt;(Main M5 stack)&lt;/div&gt;" style="whiteSpace=wrap;html=1;shadow=1;fontSize=18;" parent="1" vertex="1">
          <mxGeometry x="787" y="500" width="303" height="230" as="geometry" />
        </mxCell>
        <mxCell id="3a17f1ce550125da-5" value="&lt;font style=&quot;font-size: 14px;&quot;&gt;MQTT&amp;nbsp;&lt;/font&gt;&lt;div&gt;&lt;font style=&quot;font-size: 14px;&quot;&gt;Dashboard&lt;/font&gt;&lt;/div&gt;" style="whiteSpace=wrap;html=1;shadow=1;fontSize=18;fillColor=#b0e3e6;strokeColor=#0e8088;" parent="1" vertex="1">
          <mxGeometry x="1190" y="522" width="120" height="60" as="geometry" />
        </mxCell>
        <mxCell id="3a17f1ce550125da-18" style="edgeStyle=elbowEdgeStyle;rounded=0;html=1;startArrow=none;startFill=0;jettySize=auto;orthogonalLoop=1;fontSize=18;elbow=vertical;" parent="1" target="3a17f1ce550125da-10" edge="1">
          <mxGeometry relative="1" as="geometry">
            <mxPoint x="717" y="834" as="sourcePoint" />
          </mxGeometry>
        </mxCell>
        <mxCell id="rVol46p53n9q2bvDGO4r-17" value="&lt;b&gt;&lt;font style=&quot;font-size: 14px;&quot;&gt;PortB&lt;/font&gt;&lt;/b&gt;" style="edgeStyle=orthogonalEdgeStyle;rounded=0;orthogonalLoop=1;jettySize=auto;html=1;" edge="1" parent="1" source="rVol46p53n9q2bvDGO4r-1" target="3a17f1ce550125da-2">
          <mxGeometry relative="1" as="geometry">
            <Array as="points">
              <mxPoint x="754" y="559" />
              <mxPoint x="754" y="560" />
            </Array>
          </mxGeometry>
        </mxCell>
        <mxCell id="rVol46p53n9q2bvDGO4r-1" value="&lt;font style=&quot;font-size: 14px;&quot;&gt;Angle Unit&lt;/font&gt;" style="rounded=1;whiteSpace=wrap;html=1;fontSize=18;shadow=1;fillColor=#ffe6cc;strokeColor=#d79b00;" vertex="1" parent="1">
          <mxGeometry x="600" y="536" width="120" height="46" as="geometry" />
        </mxCell>
        <mxCell id="rVol46p53n9q2bvDGO4r-18" value="" style="edgeStyle=orthogonalEdgeStyle;rounded=0;orthogonalLoop=1;jettySize=auto;html=1;" edge="1" parent="1" source="rVol46p53n9q2bvDGO4r-5" target="3a17f1ce550125da-2">
          <mxGeometry relative="1" as="geometry">
            <Array as="points">
              <mxPoint x="770" y="673" />
              <mxPoint x="770" y="673" />
            </Array>
          </mxGeometry>
        </mxCell>
        <mxCell id="rVol46p53n9q2bvDGO4r-5" value="&lt;font style=&quot;font-size: 14px;&quot;&gt;3 Buttons&lt;/font&gt;" style="rounded=1;whiteSpace=wrap;html=1;fontSize=18;shadow=1;fillColor=#dae8fc;strokeColor=#6c8ebf;" vertex="1" parent="1">
          <mxGeometry x="600" y="650" width="120" height="46" as="geometry" />
        </mxCell>
        <mxCell id="rVol46p53n9q2bvDGO4r-7" value="&lt;font style=&quot;font-size: 14px;&quot;&gt;Secondary&amp;nbsp;&lt;/font&gt;&lt;div&gt;&lt;font style=&quot;font-size: 14px;&quot;&gt;M5 stack&lt;/font&gt;&lt;/div&gt;" style="rounded=1;whiteSpace=wrap;html=1;fontSize=18;shadow=1;fillColor=#f8cecc;strokeColor=#b85450;gradientColor=#ea6b66;" vertex="1" parent="1">
          <mxGeometry x="1190" y="630" width="120" height="60" as="geometry" />
        </mxCell>
        <mxCell id="rVol46p53n9q2bvDGO4r-33" value="&lt;font style=&quot;font-size: 14px;&quot;&gt;QspNow&lt;/font&gt;" style="edgeStyle=orthogonalEdgeStyle;rounded=0;orthogonalLoop=1;jettySize=auto;html=1;" edge="1" parent="1" source="rVol46p53n9q2bvDGO4r-9" target="rVol46p53n9q2bvDGO4r-32">
          <mxGeometry relative="1" as="geometry" />
        </mxCell>
        <mxCell id="rVol46p53n9q2bvDGO4r-9" value="Micro-Controller&lt;div&gt;(Secondary M5 stack)&lt;/div&gt;" style="whiteSpace=wrap;html=1;shadow=1;fontSize=18;" vertex="1" parent="1">
          <mxGeometry x="790" y="770" width="300" height="230" as="geometry" />
        </mxCell>
        <mxCell id="rVol46p53n9q2bvDGO4r-11" value="&lt;font style=&quot;font-size: 14px;&quot;&gt;QspNow&lt;/font&gt;" style="edgeStyle=orthogonalEdgeStyle;rounded=0;orthogonalLoop=1;jettySize=auto;html=1;" edge="1" parent="1" source="rVol46p53n9q2bvDGO4r-10" target="rVol46p53n9q2bvDGO4r-9">
          <mxGeometry x="-0.0805" relative="1" as="geometry">
            <Array as="points">
              <mxPoint x="740" y="790" />
              <mxPoint x="740" y="790" />
            </Array>
            <mxPoint as="offset" />
          </mxGeometry>
        </mxCell>
        <mxCell id="rVol46p53n9q2bvDGO4r-10" value="&lt;font style=&quot;font-size: 14px;&quot;&gt;MQTT&amp;nbsp;&lt;/font&gt;&lt;div&gt;&lt;font style=&quot;font-size: 14px;&quot;&gt;Dashboard&lt;/font&gt;&lt;/div&gt;" style="whiteSpace=wrap;html=1;shadow=1;fontSize=18;fillColor=#b0e3e6;strokeColor=#0e8088;" vertex="1" parent="1">
          <mxGeometry x="580" y="770" width="120" height="60" as="geometry" />
        </mxCell>
        <mxCell id="rVol46p53n9q2bvDGO4r-14" value="&lt;font style=&quot;font-size: 14px;&quot;&gt;QspNow&lt;/font&gt;" style="edgeStyle=orthogonalEdgeStyle;rounded=0;orthogonalLoop=1;jettySize=auto;html=1;" edge="1" parent="1">
          <mxGeometry x="0.0309" relative="1" as="geometry">
            <mxPoint x="710" y="870" as="sourcePoint" />
            <mxPoint x="787" y="870" as="targetPoint" />
            <Array as="points">
              <mxPoint x="700" y="870" />
              <mxPoint x="787" y="870" />
            </Array>
            <mxPoint as="offset" />
          </mxGeometry>
        </mxCell>
        <mxCell id="rVol46p53n9q2bvDGO4r-13" value="&lt;font style=&quot;font-size: 14px;&quot;&gt;Main&amp;nbsp;&lt;/font&gt;&lt;div&gt;&lt;font style=&quot;font-size: 14px;&quot;&gt;M5 stack&lt;/font&gt;&lt;/div&gt;" style="rounded=1;whiteSpace=wrap;html=1;fontSize=18;shadow=1;fillColor=#f8cecc;strokeColor=#b85450;gradientColor=#ea6b66;" vertex="1" parent="1">
          <mxGeometry x="580" y="836" width="120" height="60" as="geometry" />
        </mxCell>
        <mxCell id="rVol46p53n9q2bvDGO4r-23" value="&lt;font style=&quot;font-size: 14px;&quot;&gt;&lt;b&gt;PortB&lt;/b&gt;&lt;/font&gt;" style="edgeStyle=orthogonalEdgeStyle;rounded=0;orthogonalLoop=1;jettySize=auto;html=1;entryX=0;entryY=0.75;entryDx=0;entryDy=0;" edge="1" parent="1">
          <mxGeometry x="0.0223" y="1" relative="1" as="geometry">
            <mxPoint x="700" y="932.75" as="sourcePoint" />
            <mxPoint x="790" y="932.25" as="targetPoint" />
            <Array as="points">
              <mxPoint x="700" y="933.75" />
              <mxPoint x="746" y="933.75" />
              <mxPoint x="746" y="932.75" />
            </Array>
            <mxPoint as="offset" />
          </mxGeometry>
        </mxCell>
        <mxCell id="rVol46p53n9q2bvDGO4r-24" value="&lt;font style=&quot;font-size: 14px;&quot;&gt;Light Unit&lt;/font&gt;" style="rounded=1;whiteSpace=wrap;html=1;fontSize=18;shadow=1;fillColor=#e1d5e7;strokeColor=#9673a6;" vertex="1" parent="1">
          <mxGeometry x="580" y="910" width="120" height="46" as="geometry" />
        </mxCell>
        <mxCell id="rVol46p53n9q2bvDGO4r-29" value="&lt;font style=&quot;font-size: 14px;&quot;&gt;&lt;b&gt;PortA&lt;/b&gt;&lt;/font&gt;" style="edgeStyle=orthogonalEdgeStyle;rounded=0;orthogonalLoop=1;jettySize=auto;html=1;exitX=1;exitY=0.5;exitDx=0;exitDy=0;" edge="1" parent="1" source="rVol46p53n9q2bvDGO4r-26">
          <mxGeometry relative="1" as="geometry">
            <mxPoint x="680" y="1040" as="sourcePoint" />
            <mxPoint x="790" y="981" as="targetPoint" />
            <Array as="points">
              <mxPoint x="700" y="981" />
            </Array>
          </mxGeometry>
        </mxCell>
        <mxCell id="rVol46p53n9q2bvDGO4r-26" value="&lt;font style=&quot;font-size: 14px;&quot;&gt;ENV III Unit&lt;/font&gt;" style="rounded=1;whiteSpace=wrap;html=1;fontSize=18;shadow=1;fillColor=#f8cecc;strokeColor=#b85450;" vertex="1" parent="1">
          <mxGeometry x="580" y="960" width="120" height="46" as="geometry" />
        </mxCell>
        <mxCell id="rVol46p53n9q2bvDGO4r-32" value="&lt;font style=&quot;font-size: 14px;&quot;&gt;MQTT&amp;nbsp;&lt;/font&gt;&lt;div&gt;&lt;font style=&quot;font-size: 14px;&quot;&gt;Dashboard&lt;/font&gt;&lt;/div&gt;" style="whiteSpace=wrap;html=1;shadow=1;fontSize=18;fillColor=#b0e3e6;strokeColor=#0e8088;" vertex="1" parent="1">
          <mxGeometry x="1200" y="855" width="120" height="60" as="geometry" />
        </mxCell>
        <mxCell id="rVol46p53n9q2bvDGO4r-34" value="&lt;font style=&quot;font-size: 26px;&quot;&gt;Input&lt;/font&gt;" style="text;html=1;align=center;verticalAlign=middle;whiteSpace=wrap;rounded=0;" vertex="1" parent="1">
          <mxGeometry x="690" y="1010" width="60" height="30" as="geometry" />
        </mxCell>
        <mxCell id="rVol46p53n9q2bvDGO4r-35" value="&lt;font style=&quot;font-size: 26px;&quot;&gt;Output&lt;/font&gt;" style="text;html=1;align=center;verticalAlign=middle;whiteSpace=wrap;rounded=0;" vertex="1" parent="1">
          <mxGeometry x="1170" y="1006" width="60" height="30" as="geometry" />
        </mxCell>
        <mxCell id="rVol46p53n9q2bvDGO4r-36" style="edgeStyle=orthogonalEdgeStyle;rounded=0;orthogonalLoop=1;jettySize=auto;html=1;exitX=0.5;exitY=1;exitDx=0;exitDy=0;" edge="1" parent="1" source="rVol46p53n9q2bvDGO4r-34" target="rVol46p53n9q2bvDGO4r-34">
          <mxGeometry relative="1" as="geometry" />
        </mxCell>
      </root>
    </mxGraphModel>
  </diagram>
</mxfile>
